# xmcd
# 
# Track frame offsets:
#     150
#     16045
#     33445
#     43323
#     49790
#     66765
#     79263
#     91495
#     110125
#     128083
#     148435
#     158880
#     172190
#     189095
#     202525
# 
# Disc length: 2879
# 
# Revision: 13
# Processed by: cddbd v1.5.2PL0 Copyright (c) Steve Scherf et al.
# Submitted via: BonkEnc v1.0.8
# 
DISCID=ce0b3d0f
DTITLE=Howlin' Wolf - The London Sessions
DYEAR=1970
DGENRE=Blues
TTITLE0=I Ain't Superstitious
TTITLE1=Sittin' On Top Of The Word
TTITLE2=Built For Confort
TTITLE3=The Red Rooster ( Reheasal )
TTITLE4=The Red Rooster
TTITLE5=Highway 49
TTITLE6=Cause Of It All
TTITLE7=Poor Boy
TTITLE8=Commit A Crime
TTITLE9=Wang-dang-doodle
TTITLE10=Do The Do
TTITLE11=Worried About My Baby
TTITLE12=Rockin' Daddy
TTITLE13=What A Woman
TTITLE14=Who's Been Talking ?
EXTD=With :\nEric Clapton\nSteve Winwood\nBill Wyman\nCharles Watts\n
EXTT0=
EXTT1=
EXTT2=
EXTT3=
EXTT4=
EXTT5=
EXTT6=
EXTT7=
EXTT8=
EXTT9=
EXTT10=
EXTT11=
EXTT12=
EXTT13=
EXTT14=
PLAYORDER=
